<?xml version="1.0" encoding="UTF-8"?>
<svg width="94px" height="95px" viewBox="0 0 94 95" version="1.1" xmlns="http://www.w3.org/2000/svg" xmlns:xlink="http://www.w3.org/1999/xlink">
    <!-- Generator: Sketch 48.2 (47327) - http://www.bohemiancoding.com/sketch -->
    <title>Page 1</title>
    <desc>Created with Sketch.</desc>
    <defs></defs>
    <g id="iPad-Copy-3" stroke="none" stroke-width="1" fill="none" fill-rule="evenodd" transform="translate(-600.000000, -180.000000)">
        <g id="Time" transform="translate(600.000000, 107.000000)">
            <g id="Page-1">
                <g transform="translate(-1.958580, 73.000000)">
                    <polygon id="Stroke-1" stroke-opacity="0.00784313771" stroke="#000000" stroke-width="1.33333335e-11" points="0 0 94.9911243 0 94.9911243 97 0 97"></polygon>
                    <path d="M47.4955621,0 C21.2245781,0 0,21.6734377 0,48.5 C0,75.3265636 21.2245795,97 47.4955621,97 C73.766546,97 94.9911243,75.3265636 94.9911243,48.5 C94.9911243,21.6734363 73.766546,0 47.4955621,0 Z M47.4955621,90.9375 C24.4898992,90.9375 5.93694527,71.9921875 5.93694527,48.5 C5.93694527,25.0078125 24.4898992,6.0625 47.4955621,6.0625 C70.501225,6.0625 89.054179,25.0078125 89.054179,48.5 C89.054179,71.9921875 70.501225,90.9375 47.4955621,90.9375 Z M69.7591069,48.5 L48.9797984,48.5 L48.9797984,13.640625 C48.9797984,12.7312494 48.3861015,12.125 47.4955621,12.125 L44.5270895,12.125 C43.6365471,12.125 43.0428532,12.7312494 43.0428532,13.640625 L43.0428532,53.046875 C43.0428532,53.9562476 43.6365471,54.5625 44.5270895,54.5625 L69.7591069,54.5625 C70.6496463,54.5625 71.2433432,53.9562476 71.2433432,53.046875 L71.2433432,50.015625 C71.2433432,49.1062523 70.6496463,48.5 69.7591069,48.5 Z" id="Fill-2" fill="#FFFFFF" opacity="0.600000024"></path>
                </g>
            </g>
        </g>
    </g>
</svg>