<?xml version="1.0" encoding="UTF-8"?>
<svg width="118px" height="72px" viewBox="0 0 118 72" version="1.1" xmlns="http://www.w3.org/2000/svg" xmlns:xlink="http://www.w3.org/1999/xlink">
    <!-- Generator: Sketch 48.2 (47327) - http://www.bohemiancoding.com/sketch -->
    <title>Fill 2</title>
    <desc>Created with Sketch.</desc>
    <defs></defs>
    <g id="iPad-Copy-3" stroke="none" stroke-width="1" fill="none" fill-rule="evenodd" transform="translate(-346.000000, -203.000000)" opacity="0.600000024">
        <g id="Weer" transform="translate(346.000000, 107.000000)" fill="#FFFFFF">
            <g id="Rectangle-5-Copy">
                <path d="M89.5125747,115.736842 C87.4808889,115.736842 85.2460377,115.934211 83.4175174,116.328948 C78.7446416,104.486842 66.7576926,96 52.9422311,96 C38.7204308,96 26.5303162,104.881579 22.2637753,117.31579 C21.2479325,120.671053 20.6384281,123.039475 20.6384281,124.421052 C19.4194161,124.026315 16.9813934,123.631579 12.3085159,123.631579 C-1.10060988,123.631579 -12.0717131,134.289473 -12.0717131,147.315789 C-12.0717131,160.342102 -1.10060988,171 12.3085159,171 L89.5125747,171 C105.156556,171 117.956175,158.565791 117.956175,143.368421 C117.956175,128.171051 105.156556,115.736842 89.5125747,115.736842 Z M89.5125747,163.105263 L12.3085159,163.105263 C3.3690984,163.105263 -3.94497012,155.999999 -3.94497012,147.315789 C-3.94497012,138.63158 3.3690984,131.526316 12.3085159,131.526316 C14.1370323,131.526316 15.9655505,131.921054 17.7940671,132.513158 L27.7493283,136.065788 L28.562002,125.605261 C29.5778449,113.36842 40.1426122,103.894735 52.9422311,103.894735 C63.1006599,103.894735 72.2432458,110.013156 75.697113,119.092103 L78.1351375,125.407892 L85.0428721,124.026313 C86.4650538,123.631577 87.8872352,123.631577 89.5125824,123.631577 C100.686854,123.631577 109.82944,132.513158 109.82944,143.368421 C109.82944,154.223684 100.686854,163.105263 89.5125824,163.105263 L89.5125747,163.105263 Z" id="Fill-2"></path>
            </g>
        </g>
    </g>
</svg>