<?xml version="1.0" encoding="UTF-8"?>
<svg width="55px" height="73px" viewBox="0 0 55 73" version="1.1" xmlns="http://www.w3.org/2000/svg" xmlns:xlink="http://www.w3.org/1999/xlink">
    <!-- Generator: Sketch 48.2 (47327) - http://www.bohemiancoding.com/sketch -->
    <title>Page 1</title>
    <desc>Created with Sketch.</desc>
    <defs></defs>
    <g id="iPad-Copy-3" stroke="none" stroke-width="1" fill="none" fill-rule="evenodd" transform="translate(-731.000000, -575.000000)">
        <g id="Bollie-Copy-9" transform="translate(731.000000, 418.000000)" fill="#FFFFFF">
            <g id="Page-1-+-Stroke-1-+-Fill-2-Mask">
                <g id="Page-1">
                    <g transform="translate(0.000000, 157.000000)" id="Fill-2">
                        <g>
                            <path d="M27.4349112,0 C12.4327886,0 0.363412229,12.1586178 0.363412229,27.2716665 C0.363412229,36.9303817 5.32652048,45.3391473 12.7711826,50.2253199 L12.7711826,67.0428468 C12.7711826,70.2245403 15.2527365,72.724444 18.4110782,72.724444 L36.4587442,72.724444 C39.6170849,72.724444 42.0986399,70.2245403 42.0986399,67.0428468 L42.0986399,50.2253199 C49.5433003,45.3391473 54.5064103,36.9303817 54.5064103,27.2716665 C54.5064103,12.1586178 42.4370327,0 27.4349112,0 Z M37.7034109,67.6606679 C37.7034109,68.2532374 37.2470313,68.845807 36.5624665,68.845807 L18.307356,68.845807 C17.7368838,68.845807 17.1664116,68.2532374 17.1664116,67.6606679 L17.1664116,66.4755288 L25.1530224,66.4755288 C26.4080616,66.4755288 27.4349112,65.4089017 27.4349112,64.1052506 C27.4349112,62.8015994 26.4080616,61.7349725 25.1530224,61.7349725 L17.1664116,61.7349725 L17.1664116,58.1795552 L37.7034109,58.1795552 L37.7034109,67.6606679 Z M37.5167109,47.5809555 L37.5167109,53.3312589 L34.156111,53.3312589 L34.156111,20.6334455 C34.156111,19.3931831 33.1479314,18.3784238 31.9157111,18.3784238 C30.6834907,18.3784238 29.6753112,19.3931831 29.6753112,20.6334455 L29.6753112,53.3312589 L25.1945113,53.3312589 L25.1945113,27.3985103 C25.1945113,26.158248 24.1863317,25.1434887 22.9541114,25.1434887 C21.721891,25.1434887 20.7137115,26.158248 20.7137115,27.3985103 L20.7137115,53.3312589 L17.3531116,53.3312589 L17.3531116,47.5809555 C10.0718119,43.8601706 5.03091206,36.1930959 5.03091206,27.3985125 C5.03091206,14.9958936 15.1127117,4.84829627 27.4349112,4.84829627 C39.7571108,4.84829627 49.8389104,14.9958936 49.8389104,27.3985125 C49.8389104,36.193098 44.7980106,43.8601706 37.5167109,47.5809555 Z"></path>
                        </g>
                    </g>
                </g>
            </g>
        </g>
    </g>
</svg>