<?xml version="1.0" encoding="UTF-8"?>
<svg width="16px" height="20px" viewBox="0 0 16 20" version="1.1" xmlns="http://www.w3.org/2000/svg" xmlns:xlink="http://www.w3.org/1999/xlink">
    <!-- Generator: Sketch 48.2 (47327) - http://www.bohemiancoding.com/sketch -->
    <title>Page 1</title>
    <desc>Created with Sketch.</desc>
    <defs>
        <path d="M14.7878788,3.05448604 C14.1010098,3.05448604 13.5757576,3.56249212 13.5757576,4.22680758 L13.5757576,8.21270073 L1.010101,0.16275936 C0.444444447,-0.188937115 0,0.0455272011 0,0.70984278 L0,19.3106778 C0,19.9359154 0.444444447,20.2094573 1.010101,19.8186835 L13.5757576,11.8078196 L13.5757576,15.9500218 C13.5757576,16.6143377 14.1010098,17.1223434 14.7878788,17.1223434 C15.4747478,17.1223434 16,16.6143377 16,15.9500218 L16,4.22680644 C16,3.562491 15.4343428,3.05448492 14.7878788,3.05448492 L14.7878788,3.05448604 Z M2.4242424,16.1454102 L2.4242424,3.87511162 L12.0000002,10.0102606 L2.4242424,16.1454102 Z" id="path-1"></path>
    </defs>
    <g id="iPad-Copy-3" stroke="none" stroke-width="1" fill="none" fill-rule="evenodd" transform="translate(-294.000000, -642.000000)">
        <g id="Spotify" transform="translate(8.000000, 417.000000)">
            <g id="Next" transform="translate(273.000000, 214.000000)">
                <g id="Page-1" transform="translate(13.000000, 11.000000)">
                    <g id="Fill-4">
                        <use fill="#FFFFFF" fill-rule="evenodd" xlink:href="#path-1"></use>
                        <path stroke="#FFFFFF" stroke-width="1" d="M14.7878788,3.55448604 C14.373486,3.55448604 14.0757576,3.84243865 14.0757576,4.22680758 L14.0757576,9.12681877 L13.3060425,8.63371589 L0.746094885,0.587377743 C0.508262858,0.439505885 0.5,0.443945635 0.5,0.70984278 L0.5,19.3106778 C0.5,19.5530214 0.508423753,19.5575476 0.741316181,19.3970738 L14.0757576,10.8960939 L14.0757576,15.9500218 C14.0757576,16.334391 14.3734858,16.6223434 14.7878788,16.6223434 C15.2022718,16.6223434 15.5,16.334391 15.5,15.9500218 L15.5,4.22680644 C15.5,3.85845489 15.1784013,3.55448492 14.7878788,3.55448492 Z M1.9242424,17.0595788 L1.9242424,2.96094314 L12.9268369,10.0102606 L1.9242424,17.0595788 Z"></path>
                    </g>
                </g>
            </g>
        </g>
    </g>
</svg>