<?xml version="1.0" encoding="UTF-8"?>
<svg width="43px" height="41px" viewBox="0 0 43 41" version="1.1" xmlns="http://www.w3.org/2000/svg" xmlns:xlink="http://www.w3.org/1999/xlink">
    <!-- Generator: Sketch 51.3 (57544) - http://www.bohemiancoding.com/sketch -->
    <title>Fill 4</title>
    <desc>Created with Sketch.</desc>
    <defs></defs>
    <g id="Page-1" stroke="none" stroke-width="1" fill="none" fill-rule="evenodd">
        <g id="iPad-Copy-3" transform="translate(-958.000000, -124.000000)" fill="#FFFFFF" stroke="#FFFFFF" stroke-width="2">
            <g id="Nightshift" transform="translate(939.000000, 107.000000)">
                <g id="Page-1" transform="translate(20.000000, 18.000000)">
                    <path d="M29.8600297,25.7661692 C18.4136852,25.7661692 9.33125928,16.5655056 9.33125928,5.60033178 C9.33125928,4.02487573 9.51788453,2.51243786 9.82892651,1 C3.91912902,4.65505815 0,11.2089563 0,18.8341626 C0,29.7993376 9.08242589,39 20.5287704,39 C30.0466544,39 38.1337458,32.0049761 40,22.867331 C37.0139975,24.694861 33.530326,25.7661692 29.8600321,25.7661692 L29.8600297,25.7661692 Z M20.5287704,36.4792703 C10.5132185,36.4792703 2.48833581,28.5389728 2.48833581,18.8341626 C2.48833581,14.2338314 4.10575402,10.0116087 6.84292348,6.79767813 C7.46500743,18.7081256 17.5427679,28.2868989 29.8600297,28.2868989 C31.8506988,28.2868989 33.7791581,28.0348249 35.64541,27.5306795 C32.5971977,32.88723 26.8740248,36.4792703 20.5287704,36.4792703 Z" id="Fill-4"></path>
                </g>
            </g>
        </g>
    </g>
</svg>