<?xml version="1.0" encoding="UTF-8"?>
<svg width="64px" height="74px" viewBox="0 0 64 74" version="1.1" xmlns="http://www.w3.org/2000/svg" xmlns:xlink="http://www.w3.org/1999/xlink">
    <!-- Generator: Sketch 48.2 (47327) - http://www.bohemiancoding.com/sketch -->
    <title>Page 1</title>
    <desc>Created with Sketch.</desc>
    <defs></defs>
    <g id="iPad-Copy-3" stroke="none" stroke-width="1" fill="none" fill-rule="evenodd" transform="translate(-563.000000, -296.000000)">
        <g id="Bollie-Copy-2" transform="translate(59.000000, 281.000000)">
            <g id="Page-1-+-Stroke-1-+-Fill-2-Mask" transform="translate(457.000000, 0.000000)">
                <g id="Page-1">
                    <g transform="translate(47.633136, 10.000000)">
                        <polygon id="Stroke-1" stroke-opacity="0.00784313771" stroke="#000000" stroke-width="1.33333335e-11" points="2.90963855 0 65.9518072 0 65.9518072 74 2.90963855 74"></polygon>
                        <path d="M31.5210843,45.46875 C33.4348652,45.46875 34.8983434,43.9656258 34.8983434,42 L34.8983434,8.46875 C34.8983434,6.61874997 33.4348652,5 31.5210843,5 C29.6073033,5 28.1438253,6.50312494 28.1438253,8.46875 L28.1438253,42 C28.1438253,43.8499981 29.6073033,45.46875 31.5210843,45.46875 Z M38.2756024,14.9437504 L38.2756024,21.1875 C49.1954074,24.1937503 57.1882521,34.484375 57.1882521,46.625 C57.1882521,61.1937482 45.7055705,72.9874991 31.5210843,72.9874991 C17.3365981,72.9874991 5.85391652,61.1937482 5.85391652,46.625 C5.85391652,34.484375 13.8467633,24.3093758 24.7665663,21.1875 L24.7665663,14.9437504 C10.5820779,18.1812506 0,31.1312503 0,46.625 C0,64.546875 14.0719127,79 31.5210843,79 C48.970256,79 63.0421687,64.546875 63.0421687,46.625 C63.0421687,31.1312503 52.4600886,18.1812495 38.2756024,14.9437504 Z" id="Fill-2" fill="#FFFFFF"></path>
                    </g>
                </g>
            </g>
        </g>
    </g>
</svg>