<?xml version="1.0" encoding="UTF-8"?>
<svg width="16px" height="21px" viewBox="0 0 16 21" version="1.1" xmlns="http://www.w3.org/2000/svg" xmlns:xlink="http://www.w3.org/1999/xlink">
    <!-- Generator: Sketch 48.2 (47327) - http://www.bohemiancoding.com/sketch -->
    <title>Page 1</title>
    <desc>Created with Sketch.</desc>
    <defs>
        <path d="M14.989899,0.199009246 L2.4242424,8.60641173 L2.4242424,4.42321658 C2.4242424,3.72601747 1.89898981,3.19286506 1.2121212,3.19286506 C0.525252597,3.19286506 0,3.72601747 0,4.42321658 L0,16.7267316 C0,17.4239311 0.5252525,17.9570831 1.2121212,17.9570831 C1.89898981,17.9570831 2.4242424,17.4239311 2.4242424,16.7267316 L2.4242424,12.3794893 L14.989899,20.8279034 C15.5555562,21.1970095 16,20.9509382 16,20.2947514 L16,0.732161585 C16,0.0349623594 15.5151512,-0.211107909 14.989899,0.19900927 Z M14,17 L4,10.4999998 L14,4 L14,17 Z" id="path-1"></path>
    </defs>
    <g id="iPad-Copy-3" stroke="none" stroke-width="1" fill="none" fill-rule="evenodd" transform="translate(-181.000000, -642.000000)">
        <g id="Spotify" transform="translate(8.000000, 417.000000)">
            <g id="Prev" transform="translate(160.000000, 214.000000)">
                <g id="Page-1" transform="translate(13.000000, 11.000000)">
                    <g id="Fill-4">
                        <use fill="#FFFFFF" fill-rule="evenodd" xlink:href="#path-1"></use>
                        <path stroke="#FFFFFF" stroke-width="1" d="M15.297611,0.593107395 L15.2679424,0.614571355 L1.9242424,9.54254545 L1.9242424,4.42321658 C1.9242424,4.00050289 1.62116289,3.69286506 1.2121212,3.69286506 C0.80307951,3.69286506 0.5,4.00050289 0.5,4.42321658 L0.5,16.7267316 C0.5,17.1494456 0.803079302,17.4570831 1.2121212,17.4570831 C1.62116304,17.4570831 1.9242424,17.1494455 1.9242424,16.7267316 L1.9242424,11.4408147 L2.70322058,11.9645542 L15.2631363,20.4091656 C15.4939328,20.5597663 15.5,20.556516 15.5,20.2947514 L15.5,0.732161585 C15.5,0.447075952 15.4907883,0.442274471 15.297611,0.593107395 Z M14.5,17.921343 L3.0825492,10.4999998 L14.5,3.07865699 L14.5,17.921343 Z"></path>
                    </g>
                </g>
            </g>
        </g>
    </g>
</svg>