<?xml version="1.0" encoding="UTF-8"?>
<svg width="31px" height="60px" viewBox="0 0 31 60" version="1.1" xmlns="http://www.w3.org/2000/svg" xmlns:xlink="http://www.w3.org/1999/xlink">
    <!-- Generator: Sketch 51.3 (57544) - http://www.bohemiancoding.com/sketch -->
    <title>Page 1</title>
    <desc>Created with Sketch.</desc>
    <defs></defs>
    <g id="Page-1" stroke="none" stroke-width="1" fill="none" fill-rule="evenodd">
        <g id="iPad-Copy-3" transform="translate(-961.000000, -205.000000)">
            <g id="romantic" transform="translate(939.000000, 195.000000)">
                <g id="Page-1" transform="translate(23.000000, 11.000000)">
                    <polygon id="Stroke-1" stroke-opacity="0.00784313771" stroke="#000000" stroke-width="1.33333335e-11" points="0 0 29 0 29 58 0 58"></polygon>
                    <path d="M14.5,24.46875 C19.03125,24.46875 22.65625,20.84375 22.65625,16.3125 L22.65625,8.15625 L6.34375,8.15625 L6.34375,16.3125 C6.34375,20.84375 9.96875,24.46875 14.5,24.46875 Z M27.1875,0 L1.8125,0 C0.815624978,0 0,0.815625032 0,1.8125 L0,16.3125 C0,23.7437506 5.52812491,29.8156264 12.6875,30.7218764 L12.6875,54.375 L8.15625,54.375 C7.15937508,54.375 6.34375,55.1906264 6.34375,56.1875 L6.34375,58 L22.65625,58 L22.65625,56.1875 C22.65625,55.1906264 21.8406253,54.375 20.84375,54.375 L16.3125,54.375 L16.3125,30.7218764 C23.4718746,29.8156264 29,23.7437506 29,16.3125017 L29,1.81250172 C29,0.815626706 28.1843753,1.7285347e-06 27.1875,1.7285347e-06 L27.1875,0 Z M25.375,16.3125 C25.375,22.2937503 20.4812503,27.1875 14.5,27.1875 C8.51874965,27.1875 3.625,22.2937503 3.625,16.3125 L3.625,3.625 L25.375,3.625 L25.375,16.3125 Z" id="Fill-2" stroke="#FFFFFF" fill="#FFFFFF"></path>
                </g>
            </g>
        </g>
    </g>
</svg>