<?xml version="1.0" encoding="UTF-8"?>
<svg width="128px" height="115px" viewBox="0 0 128 115" version="1.1" xmlns="http://www.w3.org/2000/svg" xmlns:xlink="http://www.w3.org/1999/xlink">
    <!-- Generator: Sketch 48.2 (47327) - http://www.bohemiancoding.com/sketch -->
    <title>Group 6</title>
    <desc>Created with Sketch.</desc>
    <defs></defs>
    <g id="iPad-Copy-3" stroke="none" stroke-width="1" fill="none" fill-rule="evenodd" transform="translate(-8.000000, -573.000000)" opacity="0.600000024">
        <g id="Spotify" transform="translate(8.000000, 417.000000)" fill="#FFFFFF">
            <g id="Rectangle-5">
                <g id="Page-1">
                    <g transform="translate(0.000000, 155.899596)" id="Group-6">
                        <g>
                            <path d="M122.35884,20.6798671 C98.3887528,5.34918869 72.8338599,-1.34056217 46.4865716,0.610615885 C32.8176778,1.72557425 19.3468828,5.07044967 6.27228907,10.9239815 C1.9140907,12.8751589 -0.463108455,20.6798671 0.923591093,27.0908787 C2.31029052,33.2231493 6.86658874,36.8467647 11.2247871,34.895588 C23.1107824,29.5995341 35.1948785,26.5334 47.675172,25.6971806 C71.4471664,24.0247419 94.4267544,30.1570152 116.217746,43.8152549 C117.406342,44.6514743 118.594946,44.9302125 119.783543,44.6514743 C122.755042,44.3727336 125.528444,40.4703802 126.915137,36.2892861 C128.499935,30.435756 126.518936,23.4672659 122.35884,20.6798685 L122.35884,20.6798671 Z M113.444344,65.5569424 C94.030553,51.8987027 72.041457,44.9302125 50.0523689,44.9302125 C37.7701721,44.9302125 25.4879791,47.1601272 13.8000846,51.3412213 C10.0361859,52.7349193 7.85708695,61.3758483 8.84758656,66.393159 C9.83808617,71.4104697 13.8000846,74.4766066 17.5639824,73.0829085 C28.0632785,69.1805551 39.1568731,67.2293756 50.0523689,67.2293756 C70.0604578,67.2293756 89.0780549,73.3616492 106.708943,85.6261909 C107.699443,86.4624078 108.88804,86.7411482 110.076644,86.7411482 C112.651941,86.7411482 115.029142,81.4450968 116.415843,78.1002195 C118.198745,73.6403847 116.812044,67.7868518 113.444344,65.5569371 L113.444344,65.5569424 Z M103.935549,105.416709 C87.4932571,93.1521625 68.8718615,86.7411538 50.0523689,86.7411538 C38.7606717,86.7411538 27.6670773,88.9710684 16.9696803,93.4309086 C13.601982,94.8246066 11.8190826,104.301757 12.8095822,108.761587 C13.8000818,113.221417 17.3658798,115.730077 20.733578,114.336379 C30.2423747,110.155285 40.1473728,108.204106 50.0523689,108.204106 C66.6927653,108.204106 83.3331542,114.057633 97.7944469,124.649747 C98.7849465,125.485964 99.7754462,125.76471 100.765946,125.76471 C102.945042,125.76471 105.124146,124.092276 106.114645,121.30488 C108.095644,117.402521 106.907048,107.646635 103.935549,105.41672 L103.935549,105.416709 Z" id="Fill-4"></path>
                        </g>
                    </g>
                </g>
            </g>
        </g>
    </g>
</svg>