<?xml version="1.0" encoding="UTF-8"?>
<svg width="58px" height="142px" viewBox="0 0 58 142" version="1.1" xmlns="http://www.w3.org/2000/svg" xmlns:xlink="http://www.w3.org/1999/xlink">
    <!-- Generator: Sketch 48.2 (47327) - http://www.bohemiancoding.com/sketch -->
    <title>Page 1</title>
    <desc>Created with Sketch.</desc>
    <defs>
        <polygon id="path-1" points="0 0 60.8895522 0 60.8895522 146.775736 0 146.775736"></polygon>
        <polygon id="path-3" points="0.251840973 0 60.6377117 0 60.6377117 146.775736 0.251840973 146.775736"></polygon>
    </defs>
    <g id="iPad-Copy-3" stroke="none" stroke-width="1" fill="none" fill-rule="evenodd" transform="translate(-9.000000, -133.000000)">
        <g id="Toon" transform="translate(9.000000, 107.000000)">
            <g id="Rectangle-5">
                <g id="Page-1" transform="translate(-2.946269, 26.000000)">
                    <g id="Group-3">
                        <mask id="mask-2" fill="white">
                            <use xlink:href="#path-1"></use>
                        </mask>
                        <g id="Clip-2"></g>
                        <polygon id="Stroke-1" stroke-opacity="0.00784313771" stroke="#000000" stroke-width="1.33333335e-11" mask="url(#mask-2)" points="0 0 60.8895555 0 60.8895555 146.775745 0 146.775745"></polygon>
                    </g>
                    <g id="Group-6">
                        <mask id="mask-4" fill="white">
                            <use xlink:href="#path-3"></use>
                        </mask>
                        <g id="Clip-5"></g>
                        <path d="M51.3475777,95.4042249 L51.3475777,20.6403379 C51.3475777,9.17348352 42.0574438,0 30.4447763,0 C18.8321089,0 9.54197493,9.17348352 9.54197493,20.6403379 L9.54197493,95.4042249 C3.73564121,100.908319 0.251840973,108.476441 0.251840973,116.961915 C0.251840973,133.474187 13.7225356,146.775736 30.4447763,146.775736 C47.1670191,146.775736 60.6377117,133.474187 60.6377117,116.961915 C60.6377117,108.476441 57.1539114,100.908319 51.3475777,95.4042249 Z M30.4447763,137.602253 C18.8321089,137.602253 9.54197493,128.428769 9.54197493,116.961915 C9.54197493,111.228488 11.8645084,105.953736 16.0450691,102.055004 L18.8321089,99.3029573 L18.8321089,20.6403379 C18.8321089,14.218899 23.9416821,9.17348352 30.4447763,9.17348352 C36.9478703,9.17348352 42.0574438,14.218899 42.0574438,20.6403379 L42.0574438,99.3029573 L44.8444856,102.055004 C49.0250442,105.953736 51.3475777,111.228488 51.3475777,116.961915 C51.3475777,128.428769 42.0574438,137.602253 30.4447763,137.602253 Z M37.4123768,102.51368 L37.4123768,25.2270797 L23.4771759,25.2270797 L23.4771759,102.51368 C17.9030953,105.036384 14.1870419,110.540478 14.1870419,116.961915 C14.1870419,125.906065 21.3868966,133.015511 30.4447763,133.015511 C39.502656,133.015511 46.7025107,125.906065 46.7025107,116.961915 C46.7025107,110.540478 42.9864562,105.036384 37.4123768,102.51368 Z" id="Fill-4" fill="#FFFFFF" opacity="0.600000024" mask="url(#mask-4)"></path>
                    </g>
                </g>
            </g>
        </g>
    </g>
</svg>