<?xml version="1.0" encoding="UTF-8"?>
<svg width="12px" height="30px" viewBox="0 0 12 30" version="1.1" xmlns="http://www.w3.org/2000/svg" xmlns:xlink="http://www.w3.org/1999/xlink">
    <!-- Generator: Sketch 48.2 (47327) - http://www.bohemiancoding.com/sketch -->
    <title>Page 1</title>
    <desc>Created with Sketch.</desc>
    <defs>
        <polygon id="path-1" points="0 0 12 0 12 29.7518384 0 29.7518384"></polygon>
        <polygon id="path-3" points="0.0496323517 0 11.9503677 0 11.9503677 29.7518384 0.0496323517 29.7518384"></polygon>
    </defs>
    <g id="iPad-Copy-3" stroke="none" stroke-width="1" fill="none" fill-rule="evenodd" transform="translate(-296.000000, -224.000000)">
        <g id="Toon" transform="translate(9.000000, 107.000000)">
            <g id="Off" transform="translate(273.000000, 111.000000)">
                <g id="Page-1" transform="translate(14.000000, 6.000000)">
                    <g id="Group-3">
                        <mask id="mask-2" fill="white">
                            <use xlink:href="#path-1"></use>
                        </mask>
                        <g id="Clip-2"></g>
                        <polygon id="Stroke-1" stroke-opacity="0.00784313771" stroke="#000000" stroke-width="1.33333335e-11" mask="url(#mask-2)" points="0 0 12.0000006 0 12.0000006 29.7518402 0 29.7518402"></polygon>
                    </g>
                    <g id="Group-6">
                        <mask id="mask-4" fill="white">
                            <use xlink:href="#path-3"></use>
                        </mask>
                        <g id="Clip-5"></g>
                        <path d="M10.1194854,19.3386942 L10.1194854,4.18385228 C10.1194854,1.8594899 8.288603,0 6.00000004,0 C3.71139708,0 1.88051472,1.8594899 1.88051472,4.18385228 L1.88051472,19.3386942 C0.736213239,20.4543889 0.0496323517,21.9884677 0.0496323517,23.7084963 C0.0496323517,27.0555784 2.70441187,29.7518384 6.00000004,29.7518384 C9.29558862,29.7518384 11.9503677,27.0555784 11.9503677,23.7084963 C11.9503677,21.9884677 11.2637868,20.4543889 10.1194854,19.3386942 Z M6.00000004,27.8923485 C3.71139708,27.8923485 1.88051472,26.0328586 1.88051472,23.7084963 C1.88051472,22.5463151 2.33823531,21.4771087 3.16213246,20.6868252 L3.71139708,20.1289778 L3.71139708,4.18385228 C3.71139708,2.88220926 4.71838229,1.8594899 6.00000004,1.8594899 C7.28161774,1.8594899 8.288603,2.88220926 8.288603,4.18385228 L8.288603,20.1289778 L8.83786803,20.6868252 C9.66176477,21.4771087 10.1194854,22.5463151 10.1194854,23.7084963 C10.1194854,26.0328586 8.288603,27.8923485 6.00000004,27.8923485 Z M3.75716932,21.3841339 C3.16213246,21.9884677 2.79595612,22.7787513 2.79595612,23.7084963 C2.79595612,25.5214996 4.21488991,26.9626036 6.00000004,26.9626036 C7.78511016,26.9626036 9.20404418,25.5214996 9.20404418,23.7084963 C9.20404418,22.7787513 8.83786803,21.9884677 8.24283075,21.3841339 L3.75716888,21.3841339 L3.75716932,21.3841339 Z" id="Fill-4" fill="#FFFFFF" mask="url(#mask-4)"></path>
                    </g>
                </g>
            </g>
        </g>
    </g>
</svg>