<?xml version="1.0" encoding="UTF-8"?>
<svg width="11px" height="30px" viewBox="0 0 11 30" version="1.1" xmlns="http://www.w3.org/2000/svg" xmlns:xlink="http://www.w3.org/1999/xlink">
    <!-- Generator: Sketch 48.2 (47327) - http://www.bohemiancoding.com/sketch -->
    <title>Page 1</title>
    <desc>Created with Sketch.</desc>
    <defs>
        <polygon id="path-1" points="0 0 11 0 11 29.7518384 0 29.7518384"></polygon>
        <polygon id="path-3" points="0.0454963224 0 10.9545038 0 10.9545038 29.7518384 0.0454963224 29.7518384"></polygon>
    </defs>
    <g id="iPad-Copy-3" stroke="none" stroke-width="1" fill="none" fill-rule="evenodd" transform="translate(-241.000000, -224.000000)">
        <g id="Toon" transform="translate(9.000000, 107.000000)">
            <g id="On" transform="translate(217.000000, 111.000000)">
                <g id="Page-1" transform="translate(15.000000, 6.000000)">
                    <g id="Group-3">
                        <mask id="mask-2" fill="white">
                            <use xlink:href="#path-1"></use>
                        </mask>
                        <g id="Clip-2"></g>
                        <polygon id="Stroke-1" stroke-opacity="0.00784313771" stroke="#000000" stroke-width="1.33333335e-11" mask="url(#mask-2)" points="0 0 11.0000006 0 11.0000006 29.7518402 0 29.7518402"></polygon>
                    </g>
                    <g id="Group-6">
                        <mask id="mask-4" fill="white">
                            <use xlink:href="#path-3"></use>
                        </mask>
                        <g id="Clip-5"></g>
                        <path d="M9.27619492,19.3386942 L9.27619492,4.18385228 C9.27619492,1.8594899 7.59788608,0 5.50000004,0 C3.40211399,0 1.72380516,1.8594899 1.72380516,4.18385228 L1.72380516,19.3386942 C0.674862136,20.4543889 0.0454963224,21.9884677 0.0454963224,23.7084963 C0.0454963224,27.0555784 2.47904421,29.7518384 5.50000004,29.7518384 C8.52095623,29.7518384 10.9545038,27.0555784 10.9545038,23.7084963 C10.9545038,21.9884677 10.3251379,20.4543889 9.27619492,19.3386942 Z M5.50000004,27.8923485 C3.40211399,27.8923485 1.72380516,26.0328586 1.72380516,23.7084963 C1.72380516,22.5463151 2.14338237,21.4771087 2.89862142,20.6868252 L3.40211399,20.1289778 L3.40211399,4.18385228 C3.40211399,2.88220926 4.32518377,1.8594899 5.50000004,1.8594899 C6.67481626,1.8594899 7.59788608,2.88220926 7.59788608,4.18385228 L7.59788608,20.1289778 L8.10137902,20.6868252 C8.85661771,21.4771087 9.27619492,22.5463151 9.27619492,23.7084963 C9.27619492,26.0328586 7.59788608,27.8923485 5.50000004,27.8923485 Z M6.75873166,20.7798 L6.75873166,5.11359723 L4.24126841,5.11359723 L4.24126841,20.7798 C3.23428307,21.291159 2.56295958,22.4068537 2.56295958,23.7084963 C2.56295958,25.5214996 3.86364908,26.9626036 5.50000004,26.9626036 C7.13635098,26.9626036 8.4370405,25.5214996 8.4370405,23.7084963 C8.4370405,22.4068537 7.7657168,21.291159 6.75873166,20.7798 Z" id="Fill-4" fill="#FFFFFF" mask="url(#mask-4)"></path>
                    </g>
                </g>
            </g>
        </g>
    </g>
</svg>