<?xml version="1.0" encoding="UTF-8"?>
<svg width="24px" height="25px" viewBox="0 0 24 25" version="1.1" xmlns="http://www.w3.org/2000/svg" xmlns:xlink="http://www.w3.org/1999/xlink">
    <!-- Generator: Sketch 48.2 (47327) - http://www.bohemiancoding.com/sketch -->
    <title>Page 1</title>
    <desc>Created with Sketch.</desc>
    <defs>
        <path d="M13.1310351,2.29861914 L6.22068971,9.61477842 L2.82758623,9.61477842 C2.3724138,9.61477842 2,9.98469642 2,10.4368188 L2,18.6572225 C2,19.109344 2.37241382,19.4792629 2.82758623,19.4792629 L6.30344825,19.4792629 L13.1310343,26.7132175 C13.5862069,27.206442 14,27.0420333 14,26.3844016 L14,2.62743527 C14,1.92870094 13.6275864,1.8053949 13.1310343,2.29861914 L13.1310351,2.29861914 Z M11,22 L6.88235294,17.5701486 L4,17.5701486 L4,12.5552235 L6.80000004,12.5552235 L11,8 L11,22 Z M16,5 L16,7.5 C20.1250006,7.5 23.5,10.8750001 23.5,15 C23.5,19.1250006 20.1250006,22.5 16,22.5 L16,25 C21.5416663,25 26,20.5416663 26,15 C26,9.45833363 21.5416663,5 16,5 Z M21,14.5 C21,12.0045453 18.7727265,10 16,10 L16,12.4545455 C17.2727269,12.4545455 18.2727273,13.3545457 18.2727273,14.5 C18.2727273,15.6454542 17.2727269,16.5454545 16,16.5454545 L16,19 C18.7727265,19 21,16.9954539 21,14.5 Z" id="path-1"></path>
    </defs>
    <g id="iPad-Copy-3" stroke="none" stroke-width="1" fill="none" fill-rule="evenodd" transform="translate(-292.000000, -582.000000)">
        <g id="Spotify" transform="translate(8.000000, 417.000000)">
            <g id="vol-up" transform="translate(275.000000, 157.000000)">
                <g id="Page-1" transform="translate(7.000000, 6.000000)">
                    <polygon id="Stroke-1" stroke-opacity="0.00784313771" stroke="#000000" stroke-width="1.33333335e-11" points="0 0 28 0 28 30 0 30"></polygon>
                    <g id="Fill-2">
                        <use fill="#FFFFFF" fill-rule="evenodd" xlink:href="#path-1"></use>
                        <path stroke="#FFFFFF" stroke-width="1" d="M13.488805,2.64800447 L6.43619926,10.1147784 L2.82758623,10.1147784 C2.64780633,10.1147784 2.5,10.2615942 2.5,10.4368188 L2.5,18.6572225 C2.5,18.8324466 2.6478067,18.9792629 2.82758623,18.9792629 L6.51906861,18.9792629 L6.66706727,19.1360702 L13.4984775,26.3741223 C13.4989886,26.3746761 13.4994961,26.3752286 13.5,26.3757799 L13.5,2.63702372 C13.4963457,2.64058617 13.4926135,2.64424528 13.488805,2.64800447 Z M6.66447007,18.0701486 L3.5,18.0701486 L3.5,12.0552235 L6.58091404,12.0552235 L11.5,6.72009584 L11.5,23.2723135 L6.66447007,18.0701486 Z M16.5,5.51278932 L16.5,7.01555502 C20.6704697,7.27573118 24,10.7667433 24,15 C24,19.2332572 20.67047,22.7242689 16.5,22.984445 L16.5,24.4872107 C21.5310279,24.229152 25.5,20.0977763 25.5,15 C25.5,9.90222363 21.5310279,5.77084798 16.5,5.51278932 Z M16.5,10.5240564 L16.5,11.99461 C17.7969368,12.2054557 18.7727273,13.2252725 18.7727273,14.5 C18.7727273,15.7747275 17.7969368,16.7945443 16.5,17.00539 L16.5,18.4759436 C18.7673808,18.2561934 20.5,16.5580054 20.5,14.5 C20.5,12.4419941 18.7673811,10.7438065 16.5,10.5240564 Z"></path>
                    </g>
                </g>
            </g>
        </g>
    </g>
</svg>