<?xml version="1.0" encoding="UTF-8"?>
<svg width="19px" height="24px" viewBox="0 0 19 24" version="1.1" xmlns="http://www.w3.org/2000/svg" xmlns:xlink="http://www.w3.org/1999/xlink">
    <!-- Generator: Sketch 48.2 (47327) - http://www.bohemiancoding.com/sketch -->
    <title>Page 1</title>
    <desc>Created with Sketch.</desc>
    <defs>
        <path d="M11.3577778,0.286674374 L4.30666647,7.31018728 L0.844444424,7.31018728 C0.379999982,7.31018728 0,7.66530856 0,8.09934604 L0,15.9909336 C0,16.4249703 0.380000007,16.7800923 0.844444424,16.7800923 L4.39111083,16.7800923 L11.357777,23.7246888 C11.8222215,24.1981843 12.2444437,24.040352 12.2444437,23.4090256 L12.2444437,0.602337861 C12.2444437,-0.0684471003 11.8644439,-0.186820895 11.357777,0.286674374 L11.3577778,0.286674374 Z M9.71111131,18.5951584 L5.48888918,14.4126161 L2.53333368,14.4126161 L2.53333368,9.67766355 L5.40444477,9.67766355 L9.71111131,5.37674845 L9.71111131,18.5951584 Z M14.3555557,7.70476666 L14.3555557,10.0722429 C15.5377775,10.0722429 16.4666667,10.9403178 16.4666667,12.0451398 C16.4666667,13.1499618 15.5377775,14.0180367 14.3555557,14.0180367 L14.3555557,16.385513 C16.9311105,16.385513 19,14.4520734 19,12.0451398 C19,9.6382062 16.9311105,7.70476666 14.3555557,7.70476666 Z" id="path-1"></path>
    </defs>
    <g id="iPad-Copy-3" stroke="none" stroke-width="1" fill="none" fill-rule="evenodd" transform="translate(-237.000000, -583.000000)">
        <g id="Spotify" transform="translate(8.000000, 417.000000)">
            <g id="vol-down" transform="translate(218.000000, 157.000000)">
                <g id="Page-1" transform="translate(11.000000, 9.000000)">
                    <polygon id="Stroke-1" stroke-opacity="0.00784313771" stroke="#000000" stroke-width="1.33333335e-11" points="0 0 19 0 19 25 0 25"></polygon>
                    <g id="Fill-2">
                        <use fill="#FFFFFF" fill-rule="evenodd" xlink:href="#path-1"></use>
                        <path stroke="#FFFFFF" stroke-width="1" d="M11.7047043,0.646830084 L4.51319916,7.81018728 L0.844444424,7.81018728 C0.648859619,7.81018728 0.5,7.94930106 0.5,8.09934604 L0.5,15.9909336 C0.5,16.1409781 0.648859996,16.2800923 0.844444424,16.2800923 L4.5977531,16.2800923 L4.74410288,16.4259785 L11.7147255,23.3745634 C11.7260536,23.3861123 11.7359087,23.397071 11.7444437,23.4074009 L11.7444437,0.610844944 C11.7321298,0.621740645 11.7188623,0.63369318 11.7047043,0.646830084 Z M5.28316382,14.9126161 L2.03333368,14.9126161 L2.03333368,9.17766355 L5.19753367,9.17766355 L10.2111113,4.17078141 L10.2111113,19.7942514 L5.28316382,14.9126161 Z M14.8555557,8.23202666 L14.8555557,9.61622933 C16.0642035,9.83227646 16.9666667,10.8201726 16.9666667,12.0451398 C16.9666667,13.270107 16.0642035,14.2580032 14.8555557,14.4740503 L14.8555557,15.858253 C16.9222263,15.6311119 18.5,14.0121979 18.5,12.0451398 C18.5,10.0780817 16.9222263,8.45916775 14.8555557,8.23202666 Z"></path>
                    </g>
                </g>
            </g>
        </g>
    </g>
</svg>